%TF.GenerationSoftware,KiCad,Pcbnew,7.0.6*%
%TF.CreationDate,2023-10-29T14:46:36-05:00*%
%TF.ProjectId,Black Mage Eyes,426c6163-6b20-44d6-9167-652045796573,V01*%
%TF.SameCoordinates,Original*%
%TF.FileFunction,Copper,L1,Top*%
%TF.FilePolarity,Positive*%
%FSLAX46Y46*%
G04 Gerber Fmt 4.6, Leading zero omitted, Abs format (unit mm)*
G04 Created by KiCad (PCBNEW 7.0.6) date 2023-10-29 14:46:36*
%MOMM*%
%LPD*%
G01*
G04 APERTURE LIST*
%TA.AperFunction,ComponentPad*%
%ADD10C,1.600000*%
%TD*%
%TA.AperFunction,ComponentPad*%
%ADD11C,1.879600*%
%TD*%
%TA.AperFunction,ComponentPad*%
%ADD12O,1.600000X1.600000*%
%TD*%
%TA.AperFunction,ComponentPad*%
%ADD13R,1.500000X1.500000*%
%TD*%
%TA.AperFunction,ComponentPad*%
%ADD14C,1.500000*%
%TD*%
%TA.AperFunction,ComponentPad*%
%ADD15R,1.400000X1.400000*%
%TD*%
%TA.AperFunction,ComponentPad*%
%ADD16C,1.400000*%
%TD*%
%TA.AperFunction,ComponentPad*%
%ADD17C,3.000000*%
%TD*%
%TA.AperFunction,ComponentPad*%
%ADD18R,1.350000X1.350000*%
%TD*%
%TA.AperFunction,ComponentPad*%
%ADD19O,1.350000X1.350000*%
%TD*%
%TA.AperFunction,Conductor*%
%ADD20C,0.250000*%
%TD*%
%TA.AperFunction,Conductor*%
%ADD21C,1.500000*%
%TD*%
G04 APERTURE END LIST*
D10*
%TO.P,C1,1*%
%TO.N,Net-(NEO1-5V)*%
X105250000Y-90000000D03*
%TO.P,C1,2*%
%TO.N,Net-(J1-VBUS)*%
X108750000Y-90000000D03*
%TD*%
D11*
%TO.P,U2,JP1_1,DTR*%
%TO.N,unconnected-(U2-DTR-PadJP1_1)*%
X117620000Y-53000000D03*
%TO.P,U2,JP1_2,TXO*%
%TO.N,unconnected-(U2-TXO-PadJP1_2)*%
X115080000Y-53000000D03*
%TO.P,U2,JP1_3,RXI*%
%TO.N,unconnected-(U2-RXI-PadJP1_3)*%
X112540000Y-53000000D03*
%TO.P,U2,JP1_4,VCC*%
%TO.N,unconnected-(U2-VCC-PadJP1_4)*%
X110000000Y-53000000D03*
%TO.P,U2,JP1_5,GND*%
%TO.N,Net-(U2-GND-PadJP1_5)*%
X107460000Y-53000000D03*
%TO.P,U2,JP1_6,GND*%
X104920000Y-53000000D03*
%TO.P,U2,JP2_1,A4*%
%TO.N,unconnected-(U2-A4-PadJP2_1)*%
X115969000Y-66843000D03*
%TO.P,U2,JP2_2,A5*%
%TO.N,unconnected-(U2-A5-PadJP2_2)*%
X115969000Y-64303000D03*
%TO.P,U2,JP3_1,A6*%
%TO.N,unconnected-(U2-A6-PadJP3_1)*%
X115969000Y-77257000D03*
%TO.P,U2,JP3_2,A7*%
%TO.N,unconnected-(U2-A7-PadJP3_2)*%
X115969000Y-74717000D03*
%TO.P,U2,JP6_1,RAW*%
%TO.N,Net-(J1-VBUS)*%
X118890000Y-55540000D03*
%TO.P,U2,JP6_2,GND_1*%
%TO.N,Net-(J1-GND)*%
X118890000Y-58080000D03*
%TO.P,U2,JP6_3,RST_1*%
%TO.N,unconnected-(U2-RST_1-PadJP6_3)*%
X118890000Y-60620000D03*
%TO.P,U2,JP6_4,VCC_1*%
%TO.N,unconnected-(U2-VCC_1-PadJP6_4)*%
X118890000Y-63160000D03*
%TO.P,U2,JP6_5,A3*%
%TO.N,unconnected-(U2-A3-PadJP6_5)*%
X118890000Y-65700000D03*
%TO.P,U2,JP6_6,A2*%
%TO.N,unconnected-(U2-A2-PadJP6_6)*%
X118890000Y-68240000D03*
%TO.P,U2,JP6_7,A1*%
%TO.N,unconnected-(U2-A1-PadJP6_7)*%
X118890000Y-70780000D03*
%TO.P,U2,JP6_8,A0*%
%TO.N,unconnected-(U2-A0-PadJP6_8)*%
X118890000Y-73320000D03*
%TO.P,U2,JP6_9,SCK*%
%TO.N,unconnected-(U2-SCK-PadJP6_9)*%
X118890000Y-75860000D03*
%TO.P,U2,JP6_10,MISO*%
%TO.N,Net-(U2-MISO)*%
X118890000Y-78400000D03*
%TO.P,U2,JP6_11,MOSI*%
%TO.N,Net-(U2-MOSI)*%
X118890000Y-80940000D03*
%TO.P,U2,JP6_12,D10*%
%TO.N,Net-(U2-D10)*%
X118890000Y-83480000D03*
%TO.P,U2,JP7_1,D9*%
%TO.N,Net-(U2-D9)*%
X103650000Y-83480000D03*
%TO.P,U2,JP7_2,D8*%
%TO.N,Net-(U2-D8)*%
X103650000Y-80940000D03*
%TO.P,U2,JP7_3,D7*%
%TO.N,Net-(U2-D7)*%
X103650000Y-78400000D03*
%TO.P,U2,JP7_4,D6*%
%TO.N,Net-(U2-D6)*%
X103650000Y-75860000D03*
%TO.P,U2,JP7_5,D5*%
%TO.N,unconnected-(U2-D5-PadJP7_5)*%
X103650000Y-73320000D03*
%TO.P,U2,JP7_6,D4*%
%TO.N,unconnected-(U2-D4-PadJP7_6)*%
X103650000Y-70780000D03*
%TO.P,U2,JP7_7,D3*%
%TO.N,unconnected-(U2-D3-PadJP7_7)*%
X103650000Y-68240000D03*
%TO.P,U2,JP7_8,D2*%
%TO.N,unconnected-(U2-D2-PadJP7_8)*%
X103650000Y-65700000D03*
%TO.P,U2,JP7_9,GND_2*%
%TO.N,unconnected-(U2-GND_2-PadJP7_9)*%
X103650000Y-63160000D03*
%TO.P,U2,JP7_10,RST_2*%
%TO.N,unconnected-(U2-RST_2-PadJP7_10)*%
X103650000Y-60620000D03*
%TO.P,U2,JP7_11,RXI_2*%
%TO.N,unconnected-(U2-RXI_2-PadJP7_11)*%
X103650000Y-58080000D03*
%TO.P,U2,JP7_12,TXO_2*%
%TO.N,unconnected-(U2-TXO_2-PadJP7_12)*%
X103650000Y-55540000D03*
%TD*%
D10*
%TO.P,R1,1*%
%TO.N,Net-(U2-D6)*%
X119560000Y-93500000D03*
D12*
%TO.P,R1,2*%
%TO.N,Net-(NEO1-Din)*%
X111940000Y-93500000D03*
%TD*%
D13*
%TO.P,J2,1*%
%TO.N,unconnected-(J2-Pad1)*%
X106440000Y-127040000D03*
D14*
%TO.P,J2,2*%
%TO.N,Net-(J1-GND)*%
X107710000Y-124500000D03*
%TO.P,J2,3*%
%TO.N,Net-(U2-D9)*%
X108980000Y-127040000D03*
%TO.P,J2,4*%
%TO.N,Net-(U2-D10)*%
X110250000Y-124500000D03*
%TO.P,J2,5*%
%TO.N,Net-(U2-D8)*%
X111520000Y-127040000D03*
%TO.P,J2,6*%
%TO.N,Net-(U2-MOSI)*%
X112790000Y-124500000D03*
%TO.P,J2,7*%
%TO.N,Net-(U2-D7)*%
X114060000Y-127040000D03*
%TO.P,J2,8*%
%TO.N,Net-(U2-MISO)*%
X115330000Y-124500000D03*
%TD*%
D15*
%TO.P,J1,1,VBUS*%
%TO.N,Net-(J1-VBUS)*%
X108790000Y-107520000D03*
D16*
%TO.P,J1,2,D-*%
%TO.N,unconnected-(J1-D--Pad2)*%
X108790000Y-110020000D03*
%TO.P,J1,3,D+*%
%TO.N,unconnected-(J1-D+-Pad3)*%
X111990000Y-110020000D03*
%TO.P,J1,4,GND*%
%TO.N,Net-(J1-GND)*%
X111990000Y-107520000D03*
D17*
%TO.P,J1,5,Shield*%
%TO.N,unconnected-(J1-Shield-Pad5)*%
X111500000Y-114790000D03*
X111500000Y-102750000D03*
%TD*%
D18*
%TO.P,NEO1,1,GND*%
%TO.N,Net-(J1-GND)*%
X114000000Y-89000000D03*
D19*
%TO.P,NEO1,2,Din*%
%TO.N,Net-(NEO1-Din)*%
X116000000Y-89000000D03*
%TO.P,NEO1,3,5V*%
%TO.N,Net-(NEO1-5V)*%
X118000000Y-89000000D03*
%TD*%
D20*
%TO.N,Net-(U2-D7)*%
X110350000Y-130750000D02*
X103625000Y-130750000D01*
X103625000Y-130750000D02*
X100875000Y-128000000D01*
X114060000Y-127040000D02*
X110350000Y-130750000D01*
X100875000Y-81175000D02*
X100875000Y-128000000D01*
%TO.N,Net-(U2-D8)*%
X109310000Y-129250000D02*
X104250000Y-129250000D01*
X104250000Y-129250000D02*
X102000000Y-127000000D01*
X111520000Y-127040000D02*
X109310000Y-129250000D01*
X102000000Y-82590000D02*
X102000000Y-127000000D01*
%TO.N,Net-(U2-D9)*%
X105750000Y-128500000D02*
X103250000Y-126000000D01*
X107500000Y-128500000D02*
X105750000Y-128500000D01*
X107885000Y-128115000D02*
X107500000Y-128500000D01*
X107905000Y-128115000D02*
X107885000Y-128115000D01*
X103250000Y-83880000D02*
X103650000Y-83480000D01*
X108980000Y-127040000D02*
X107905000Y-128115000D01*
X103250000Y-126000000D02*
X103250000Y-83880000D01*
X108980000Y-127020000D02*
X108980000Y-127040000D01*
X108980000Y-127020000D02*
X109000000Y-127000000D01*
%TO.N,Net-(U2-MOSI)*%
X120685000Y-82735000D02*
X118890000Y-80940000D01*
X120685000Y-116565000D02*
X120685000Y-82735000D01*
X112790000Y-124460000D02*
X120685000Y-116565000D01*
X112790000Y-124500000D02*
X112790000Y-124460000D01*
%TO.N,Net-(U2-MISO)*%
X121750000Y-81260000D02*
X118890000Y-78400000D01*
X115500000Y-124500000D02*
X121750000Y-118250000D01*
X115330000Y-124500000D02*
X115500000Y-124500000D01*
X121750000Y-118250000D02*
X121750000Y-81260000D01*
%TO.N,Net-(U2-D10)*%
X118435000Y-116315000D02*
X110250000Y-124500000D01*
X119094009Y-92375000D02*
X118435000Y-93034009D01*
X118435000Y-93034009D02*
X118435000Y-116315000D01*
X119273750Y-83863750D02*
X119273750Y-92375000D01*
X118890000Y-83480000D02*
X119273750Y-83863750D01*
X119273750Y-92375000D02*
X119094009Y-92375000D01*
D21*
%TO.N,Net-(J1-GND)*%
X115250000Y-110000000D02*
X115250000Y-108007500D01*
X112910000Y-112340000D02*
X115250000Y-110000000D01*
X106500000Y-112340000D02*
X112910000Y-112340000D01*
X106500000Y-123290000D02*
X106500000Y-112340000D01*
X107710000Y-124500000D02*
X106500000Y-123290000D01*
X112010000Y-107500000D02*
X111990000Y-107520000D01*
X114742500Y-107500000D02*
X112010000Y-107500000D01*
X115250000Y-108007500D02*
X114742500Y-107500000D01*
%TO.N,Net-(J1-VBUS)*%
X108787500Y-109017500D02*
X108790000Y-109020000D01*
X106500000Y-104750000D02*
X108787500Y-107037500D01*
X106500000Y-92250000D02*
X106500000Y-104750000D01*
X108787500Y-107037500D02*
X108787500Y-109017500D01*
X108750000Y-90000000D02*
X106500000Y-92250000D01*
X108750000Y-90000000D02*
X108750000Y-59750000D01*
X108750000Y-59750000D02*
X112960000Y-55540000D01*
X112960000Y-55540000D02*
X118890000Y-55540000D01*
%TO.N,Net-(J1-GND)*%
X114000000Y-89000000D02*
X114000000Y-60750000D01*
X114000000Y-91250000D02*
X115250000Y-92500000D01*
X114000000Y-89000000D02*
X114000000Y-91250000D01*
X114000000Y-60750000D02*
X116670000Y-58080000D01*
X115250000Y-92500000D02*
X115250000Y-108007500D01*
X116670000Y-58080000D02*
X118890000Y-58080000D01*
D20*
%TO.N,Net-(U2-D7)*%
X103650000Y-78400000D02*
X100875000Y-81175000D01*
%TO.N,Net-(U2-D8)*%
X103650000Y-80940000D02*
X102000000Y-82590000D01*
%TD*%
M02*
