M48
; DRILL file {KiCad 7.0.6} date Sun Oct 29 14:41:24 2023
; FORMAT={-:-/ absolute / inch / decimal}
; #@! TF.CreationDate,2023-10-29T14:41:24-05:00
; #@! TF.GenerationSoftware,Kicad,Pcbnew,7.0.6
; #@! TF.FileFunction,Plated,1,2,PTH
FMAT,2
INCH
; #@! TA.AperFunction,Plated,PTH,ComponentDrill
T1C0.0299
; #@! TA.AperFunction,Plated,PTH,ComponentDrill
T2C0.0315
; #@! TA.AperFunction,Plated,PTH,ComponentDrill
T3C0.0362
; #@! TA.AperFunction,Plated,PTH,ComponentDrill
T4C0.0400
; #@! TA.AperFunction,Plated,PTH,ComponentDrill
T5C0.0906
%
G90
G05
T1
X4.1906Y-5.0016
X4.2406Y-4.9016
X4.2906Y-5.0016
X4.3406Y-4.9016
X4.3906Y-5.0016
X4.4406Y-4.9016
X4.4906Y-5.0016
X4.5406Y-4.9016
T2
X4.1437Y-3.5433
X4.2815Y-3.5433
X4.4071Y-3.6811
X4.4882Y-3.5039
X4.5669Y-3.5039
X4.6457Y-3.5039
X4.7071Y-3.6811
T3
X4.2831Y-4.2331
X4.2831Y-4.3315
X4.4091Y-4.2331
X4.4091Y-4.3315
T4
X4.0807Y-2.1866
X4.0807Y-2.2866
X4.0807Y-2.3866
X4.0807Y-2.4866
X4.0807Y-2.5866
X4.0807Y-2.6866
X4.0807Y-2.7866
X4.0807Y-2.8866
X4.0807Y-2.9866
X4.0807Y-3.0866
X4.0807Y-3.1866
X4.0807Y-3.2866
X4.1307Y-2.0866
X4.2307Y-2.0866
X4.3307Y-2.0866
X4.4307Y-2.0866
X4.5307Y-2.0866
X4.5657Y-2.5316
X4.5657Y-2.6316
X4.5657Y-2.9416
X4.5657Y-3.0416
X4.6307Y-2.0866
X4.6807Y-2.1866
X4.6807Y-2.2866
X4.6807Y-2.3866
X4.6807Y-2.4866
X4.6807Y-2.5866
X4.6807Y-2.6866
X4.6807Y-2.7866
X4.6807Y-2.8866
X4.6807Y-2.9866
X4.6807Y-3.0866
X4.6807Y-3.1866
X4.6807Y-3.2866
T5
X4.3898Y-4.0453
X4.3898Y-4.5193
T0
M30
