%TF.GenerationSoftware,KiCad,Pcbnew,7.0.6*%
%TF.CreationDate,2023-10-29T14:46:36-05:00*%
%TF.ProjectId,Black Mage Eyes,426c6163-6b20-44d6-9167-652045796573,V01*%
%TF.SameCoordinates,Original*%
%TF.FileFunction,Legend,Top*%
%TF.FilePolarity,Positive*%
%FSLAX46Y46*%
G04 Gerber Fmt 4.6, Leading zero omitted, Abs format (unit mm)*
G04 Created by KiCad (PCBNEW 7.0.6) date 2023-10-29 14:46:36*
%MOMM*%
%LPD*%
G01*
G04 APERTURE LIST*
%ADD10C,0.150000*%
%ADD11C,0.120000*%
%ADD12C,0.127000*%
G04 APERTURE END LIST*
D10*
X113170112Y-86346009D02*
X113312969Y-86393628D01*
X113312969Y-86393628D02*
X113360588Y-86441247D01*
X113360588Y-86441247D02*
X113408207Y-86536485D01*
X113408207Y-86536485D02*
X113408207Y-86679342D01*
X113408207Y-86679342D02*
X113360588Y-86774580D01*
X113360588Y-86774580D02*
X113312969Y-86822200D01*
X113312969Y-86822200D02*
X113217731Y-86869819D01*
X113217731Y-86869819D02*
X112836779Y-86869819D01*
X112836779Y-86869819D02*
X112836779Y-85869819D01*
X112836779Y-85869819D02*
X113170112Y-85869819D01*
X113170112Y-85869819D02*
X113265350Y-85917438D01*
X113265350Y-85917438D02*
X113312969Y-85965057D01*
X113312969Y-85965057D02*
X113360588Y-86060295D01*
X113360588Y-86060295D02*
X113360588Y-86155533D01*
X113360588Y-86155533D02*
X113312969Y-86250771D01*
X113312969Y-86250771D02*
X113265350Y-86298390D01*
X113265350Y-86298390D02*
X113170112Y-86346009D01*
X113170112Y-86346009D02*
X112836779Y-86346009D01*
X114312969Y-86869819D02*
X113836779Y-86869819D01*
X113836779Y-86869819D02*
X113836779Y-85869819D01*
X114646303Y-86869819D02*
X114646303Y-85869819D01*
X115217731Y-86869819D02*
X114789160Y-86298390D01*
X115217731Y-85869819D02*
X114646303Y-86441247D01*
X101333333Y-90359580D02*
X101285714Y-90407200D01*
X101285714Y-90407200D02*
X101142857Y-90454819D01*
X101142857Y-90454819D02*
X101047619Y-90454819D01*
X101047619Y-90454819D02*
X100904762Y-90407200D01*
X100904762Y-90407200D02*
X100809524Y-90311961D01*
X100809524Y-90311961D02*
X100761905Y-90216723D01*
X100761905Y-90216723D02*
X100714286Y-90026247D01*
X100714286Y-90026247D02*
X100714286Y-89883390D01*
X100714286Y-89883390D02*
X100761905Y-89692914D01*
X100761905Y-89692914D02*
X100809524Y-89597676D01*
X100809524Y-89597676D02*
X100904762Y-89502438D01*
X100904762Y-89502438D02*
X101047619Y-89454819D01*
X101047619Y-89454819D02*
X101142857Y-89454819D01*
X101142857Y-89454819D02*
X101285714Y-89502438D01*
X101285714Y-89502438D02*
X101333333Y-89550057D01*
X102285714Y-90454819D02*
X101714286Y-90454819D01*
X102000000Y-90454819D02*
X102000000Y-89454819D01*
X102000000Y-89454819D02*
X101904762Y-89597676D01*
X101904762Y-89597676D02*
X101809524Y-89692914D01*
X101809524Y-89692914D02*
X101714286Y-89740533D01*
X100238095Y-74454819D02*
X100238095Y-75264342D01*
X100238095Y-75264342D02*
X100285714Y-75359580D01*
X100285714Y-75359580D02*
X100333333Y-75407200D01*
X100333333Y-75407200D02*
X100428571Y-75454819D01*
X100428571Y-75454819D02*
X100619047Y-75454819D01*
X100619047Y-75454819D02*
X100714285Y-75407200D01*
X100714285Y-75407200D02*
X100761904Y-75359580D01*
X100761904Y-75359580D02*
X100809523Y-75264342D01*
X100809523Y-75264342D02*
X100809523Y-74454819D01*
X101238095Y-74550057D02*
X101285714Y-74502438D01*
X101285714Y-74502438D02*
X101380952Y-74454819D01*
X101380952Y-74454819D02*
X101619047Y-74454819D01*
X101619047Y-74454819D02*
X101714285Y-74502438D01*
X101714285Y-74502438D02*
X101761904Y-74550057D01*
X101761904Y-74550057D02*
X101809523Y-74645295D01*
X101809523Y-74645295D02*
X101809523Y-74740533D01*
X101809523Y-74740533D02*
X101761904Y-74883390D01*
X101761904Y-74883390D02*
X101190476Y-75454819D01*
X101190476Y-75454819D02*
X101809523Y-75454819D01*
X115833333Y-96954819D02*
X115500000Y-96478628D01*
X115261905Y-96954819D02*
X115261905Y-95954819D01*
X115261905Y-95954819D02*
X115642857Y-95954819D01*
X115642857Y-95954819D02*
X115738095Y-96002438D01*
X115738095Y-96002438D02*
X115785714Y-96050057D01*
X115785714Y-96050057D02*
X115833333Y-96145295D01*
X115833333Y-96145295D02*
X115833333Y-96288152D01*
X115833333Y-96288152D02*
X115785714Y-96383390D01*
X115785714Y-96383390D02*
X115738095Y-96431009D01*
X115738095Y-96431009D02*
X115642857Y-96478628D01*
X115642857Y-96478628D02*
X115261905Y-96478628D01*
X116785714Y-96954819D02*
X116214286Y-96954819D01*
X116500000Y-96954819D02*
X116500000Y-95954819D01*
X116500000Y-95954819D02*
X116404762Y-96097676D01*
X116404762Y-96097676D02*
X116309524Y-96192914D01*
X116309524Y-96192914D02*
X116214286Y-96240533D01*
X120119166Y-126454819D02*
X120119166Y-127169104D01*
X120119166Y-127169104D02*
X120071547Y-127311961D01*
X120071547Y-127311961D02*
X119976309Y-127407200D01*
X119976309Y-127407200D02*
X119833452Y-127454819D01*
X119833452Y-127454819D02*
X119738214Y-127454819D01*
X120547738Y-126550057D02*
X120595357Y-126502438D01*
X120595357Y-126502438D02*
X120690595Y-126454819D01*
X120690595Y-126454819D02*
X120928690Y-126454819D01*
X120928690Y-126454819D02*
X121023928Y-126502438D01*
X121023928Y-126502438D02*
X121071547Y-126550057D01*
X121071547Y-126550057D02*
X121119166Y-126645295D01*
X121119166Y-126645295D02*
X121119166Y-126740533D01*
X121119166Y-126740533D02*
X121071547Y-126883390D01*
X121071547Y-126883390D02*
X120500119Y-127454819D01*
X120500119Y-127454819D02*
X121119166Y-127454819D01*
X103694819Y-113653333D02*
X104409104Y-113653333D01*
X104409104Y-113653333D02*
X104551961Y-113700952D01*
X104551961Y-113700952D02*
X104647200Y-113796190D01*
X104647200Y-113796190D02*
X104694819Y-113939047D01*
X104694819Y-113939047D02*
X104694819Y-114034285D01*
X104694819Y-112653333D02*
X104694819Y-113224761D01*
X104694819Y-112939047D02*
X103694819Y-112939047D01*
X103694819Y-112939047D02*
X103837676Y-113034285D01*
X103837676Y-113034285D02*
X103932914Y-113129523D01*
X103932914Y-113129523D02*
X103980533Y-113224761D01*
X117011905Y-86954819D02*
X117011905Y-85954819D01*
X117011905Y-85954819D02*
X117583333Y-86954819D01*
X117583333Y-86954819D02*
X117583333Y-85954819D01*
X118059524Y-86431009D02*
X118392857Y-86431009D01*
X118535714Y-86954819D02*
X118059524Y-86954819D01*
X118059524Y-86954819D02*
X118059524Y-85954819D01*
X118059524Y-85954819D02*
X118535714Y-85954819D01*
X119154762Y-85954819D02*
X119345238Y-85954819D01*
X119345238Y-85954819D02*
X119440476Y-86002438D01*
X119440476Y-86002438D02*
X119535714Y-86097676D01*
X119535714Y-86097676D02*
X119583333Y-86288152D01*
X119583333Y-86288152D02*
X119583333Y-86621485D01*
X119583333Y-86621485D02*
X119535714Y-86811961D01*
X119535714Y-86811961D02*
X119440476Y-86907200D01*
X119440476Y-86907200D02*
X119345238Y-86954819D01*
X119345238Y-86954819D02*
X119154762Y-86954819D01*
X119154762Y-86954819D02*
X119059524Y-86907200D01*
X119059524Y-86907200D02*
X118964286Y-86811961D01*
X118964286Y-86811961D02*
X118916667Y-86621485D01*
X118916667Y-86621485D02*
X118916667Y-86288152D01*
X118916667Y-86288152D02*
X118964286Y-86097676D01*
X118964286Y-86097676D02*
X119059524Y-86002438D01*
X119059524Y-86002438D02*
X119154762Y-85954819D01*
X120535714Y-86954819D02*
X119964286Y-86954819D01*
X120250000Y-86954819D02*
X120250000Y-85954819D01*
X120250000Y-85954819D02*
X120154762Y-86097676D01*
X120154762Y-86097676D02*
X120059524Y-86192914D01*
X120059524Y-86192914D02*
X119964286Y-86240533D01*
D11*
%TO.C,C1*%
X111120000Y-90000000D02*
G75*
G03*
X111120000Y-90000000I-4120000J0D01*
G01*
D12*
%TO.C,U2*%
X102380000Y-51730000D02*
X102380000Y-84750000D01*
X102380000Y-84750000D02*
X120160000Y-84750000D01*
X120160000Y-51730000D02*
X102380000Y-51730000D01*
X120160000Y-84750000D02*
X120160000Y-51730000D01*
D11*
%TO.C,R1*%
X119020000Y-94870000D02*
X112480000Y-94870000D01*
X119020000Y-94540000D02*
X119020000Y-94870000D01*
X119020000Y-92460000D02*
X119020000Y-92130000D01*
X119020000Y-92130000D02*
X112480000Y-92130000D01*
X112480000Y-94870000D02*
X112480000Y-94540000D01*
X112480000Y-92130000D02*
X112480000Y-92460000D01*
%TO.C,J2*%
X102440000Y-126540000D02*
X102440000Y-127540000D01*
X102440000Y-127540000D02*
X102940000Y-127040000D01*
X102940000Y-127040000D02*
X102440000Y-126540000D01*
X103125000Y-123160000D02*
X103125000Y-141120000D01*
X103125000Y-141120000D02*
X118645000Y-141120000D01*
X118645000Y-123160000D02*
X103125000Y-123160000D01*
X118645000Y-123160000D02*
X118645000Y-141120000D01*
%TO.C,J1*%
X104990000Y-115820000D02*
X104990000Y-101720000D01*
X109790000Y-115820000D02*
X104990000Y-115820000D01*
X118090000Y-115820000D02*
X113290000Y-115820000D01*
X104290000Y-108020000D02*
X104790000Y-107520000D01*
X104790000Y-107520000D02*
X104290000Y-107020000D01*
X104290000Y-107020000D02*
X104290000Y-108020000D01*
X104990000Y-101720000D02*
X109790000Y-101720000D01*
X113290000Y-101720000D02*
X118090000Y-101720000D01*
X118090000Y-101720000D02*
X118090000Y-115820000D01*
%TO.C,NEO1*%
X112940000Y-90060000D02*
X112940000Y-89000000D01*
X114000000Y-90060000D02*
X112940000Y-90060000D01*
X115000000Y-90060000D02*
X119060000Y-90060000D01*
X115000000Y-90060000D02*
X115000000Y-87940000D01*
X119060000Y-90060000D02*
X119060000Y-87940000D01*
X115000000Y-87940000D02*
X119060000Y-87940000D01*
%TD*%
M02*
